<svg width="1280" height="720" xmlns="http://www.w3.org/2000/svg" xmlns:xlink="http://www.w3.org/1999/xlink" overflow="hidden"><defs><clipPath id="clip0"><path d="M0 0 1280 0 1280 720 0 720Z" fill-rule="evenodd" clip-rule="evenodd"/></clipPath></defs><g clip-path="url(#clip0)"><rect x="0" y="0" width="1280" height="720" fill="#FFFFFF"/><path d="M491 649.667C491 645.433 494.433 642 498.667 642L567.333 642C571.567 642 575 645.433 575 649.667L575 680.333C575 684.567 571.567 688 567.333 688L498.667 688C494.433 688 491 684.567 491 680.333Z" fill="#C5E0B4" fill-rule="evenodd"/><path d="M492 574.5C492 570.358 495.358 567 499.5 567L567.5 567C571.642 567 575 570.358 575 574.5L575 604.5C575 608.642 571.642 612 567.5 612L499.5 612C495.358 612 492 608.642 492 604.5Z" fill="#C5E0B4" fill-rule="evenodd"/><path d="M491 436.5C491 432.358 494.358 429 498.5 429L567.5 429C571.642 429 575 432.358 575 436.5L575 466.5C575 470.642 571.642 474 567.5 474L498.5 474C494.358 474 491 470.642 491 466.5Z" fill="#C5E0B4" fill-rule="evenodd"/><path d="M489 140.667C489 136.433 492.433 133 496.667 133L564.333 133C568.567 133 572 136.433 572 140.667L572 171.333C572 175.567 568.567 179 564.333 179L496.667 179C492.433 179 489 175.567 489 171.333Z" fill="#C5E0B4" fill-rule="evenodd"/><path d="M41 181.5C41 175.701 45.7011 171 51.5002 171L93.4998 171C99.2989 171 104 175.701 104 181.5L104 223.5C104 229.299 99.2989 234 93.4998 234L51.5002 234C45.7011 234 41 229.299 41 223.5Z" fill="#8FAADC" fill-rule="evenodd"/><text fill="#FFFFFF" font-family="Calibri,Calibri_MSFontService,sans-serif" font-weight="700" font-size="24" transform="translate(62.048 210)">M</text><path d="M116 181.5C116 175.701 120.701 171 126.5 171L168.5 171C174.299 171 179 175.701 179 181.5L179 223.5C179 229.299 174.299 234 168.5 234L126.5 234C120.701 234 116 229.299 116 223.5Z" fill="#C55A11" fill-rule="evenodd"/><text fill="#FFFFFF" font-family="Calibri,Calibri_MSFontService,sans-serif" font-weight="700" font-size="24" transform="translate(142.113 210)">F</text><path d="M116 390.5C116 384.701 120.701 380 126.5 380L168.5 380C174.299 380 179 384.701 179 390.5L179 432.5C179 438.299 174.299 443 168.5 443L126.5 443C120.701 443 116 438.299 116 432.5Z" fill="#8FAADC" fill-rule="evenodd"/><text fill="#FFFFFF" font-family="Calibri,Calibri_MSFontService,sans-serif" font-weight="700" font-size="24" transform="translate(137.113 419)">M</text><path d="M44 390.5C44 384.701 48.7011 380 54.5002 380L96.4998 380C102.299 380 107 384.701 107 390.5L107 432.5C107 438.299 102.299 443 96.4998 443L54.5002 443C48.7011 443 44 438.299 44 432.5Z" fill="#C55A11" fill-rule="evenodd"/><text fill="#FFFFFF" font-family="Calibri,Calibri_MSFontService,sans-serif" font-weight="700" font-size="24" transform="translate(70.1881 419)">F</text><path d="M42 613.334C42 607.626 46.6265 603 52.3335 603L94.6665 603C100.374 603 105 607.626 105 613.334L105 654.666C105 660.374 100.374 665 94.6665 665L52.3335 665C46.6265 665 42 660.374 42 654.666Z" fill="#C55A11" fill-rule="evenodd"/><text fill="#FFFFFF" font-family="Calibri,Calibri_MSFontService,sans-serif" font-weight="700" font-size="24" transform="translate(67.98 642)">F</text><path d="M117 613.334C117 607.626 121.626 603 127.334 603L169.666 603C175.374 603 180 607.626 180 613.334L180 654.666C180 660.374 175.374 665 169.666 665L127.334 665C121.626 665 117 660.374 117 654.666Z" fill="#C55A11" fill-rule="evenodd"/><text fill="#FFFFFF" font-family="Calibri,Calibri_MSFontService,sans-serif" font-weight="700" font-size="24" transform="translate(143.045 642)">F<tspan fill="#000000" x="-106.4" y="-527">Popolazione A</tspan></text><path d="M499 144.833C499 142.164 501.164 140 503.833 140L523.167 140C525.836 140 528 142.164 528 144.833L528 167.167C528 169.836 525.836 172 523.167 172L503.833 172C501.164 172 499 169.836 499 167.167Z" fill="#8FAADC" fill-rule="evenodd"/><text fill="#FFFFFF" font-family="Calibri,Calibri_MSFontService,sans-serif" font-weight="700" font-size="24" transform="translate(502.753 164)">M</text><path d="M533 144.667C533 142.089 535.089 140 537.667 140L556.333 140C558.911 140 561 142.089 561 144.667L561 167.333C561 169.911 558.911 172 556.333 172L537.667 172C535.089 172 533 169.911 533 167.333Z" stroke="#000000" stroke-width="4" stroke-miterlimit="8" fill="#C55A11" fill-rule="evenodd"/><text fill="#FFFFFF" font-family="Calibri,Calibri_MSFontService,sans-serif" font-weight="700" font-size="24" transform="translate(541.516 164)">F</text><path d="M499 214.833C499 212.164 501.164 210 503.833 210L523.167 210C525.836 210 528 212.164 528 214.833L528 237.167C528 239.836 525.836 242 523.167 242L503.833 242C501.164 242 499 239.836 499 237.167Z" stroke="#000000" stroke-width="4" stroke-miterlimit="8" fill="#8FAADC" fill-rule="evenodd"/><text fill="#FFFFFF" font-family="Calibri,Calibri_MSFontService,sans-serif" font-weight="700" font-size="24" transform="translate(503.125 234)">M</text><path d="M533 214.833C533 212.164 535.164 210 537.833 210L557.167 210C559.836 210 562 212.164 562 214.833L562 237.167C562 239.836 559.836 242 557.167 242L537.833 242C535.164 242 533 239.836 533 237.167Z" fill="#C55A11" fill-rule="evenodd"/><text fill="#FFFFFF" font-family="Calibri,Calibri_MSFontService,sans-serif" font-weight="700" font-size="24" transform="translate(541.888 234)">F<tspan fill="#000000" font-weight="400" x="-151.637" y="-207">Il genitore parla </tspan><tspan fill="#000000" x="7.61682" y="-207">senza che gli si chieda</tspan><tspan fill="#000000" font-weight="400" x="223.477" y="-207">:</tspan><tspan fill="#000000" font-weight="400" x="-151.637" y="-178">sceglie un figlio o l’altro (50% ognuno)</tspan></text><path d="M536 347.833C536 345.164 538.164 343 540.833 343L560.167 343C562.836 343 565 345.164 565 347.833L565 370.167C565 372.836 562.836 375 560.167 375L540.833 375C538.164 375 536 372.836 536 370.167Z" stroke="#000000" stroke-width="4" stroke-miterlimit="8" fill="#8FAADC" fill-rule="evenodd"/><text fill="#FFFFFF" font-family="Calibri,Calibri_MSFontService,sans-serif" font-weight="700" font-size="24" transform="translate(540.334 366)">M</text><path d="M499 347.833C499 345.164 501.164 343 503.833 343L523.167 343C525.836 343 528 345.164 528 347.833L528 370.167C528 372.836 525.836 375 523.167 375L503.833 375C501.164 375 499 372.836 499 370.167Z" fill="#C55A11" fill-rule="evenodd"/><text fill="#FFFFFF" font-family="Calibri,Calibri_MSFontService,sans-serif" font-weight="700" font-size="24" transform="translate(507.655 366)">F</text><path d="M537 439.833C537 437.164 539.164 435 541.833 435L561.167 435C563.836 435 566 437.164 566 439.833L566 462.167C566 464.836 563.836 467 561.167 467L541.833 467C539.164 467 537 464.836 537 462.167Z" fill="#8FAADC" fill-rule="evenodd"/><text fill="#FFFFFF" font-family="Calibri,Calibri_MSFontService,sans-serif" font-weight="700" font-size="24" transform="translate(541.451 459)">M</text><path d="M500 439.833C500 437.164 502.164 435 504.833 435L524.167 435C526.836 435 529 437.164 529 439.833L529 462.167C529 464.836 526.836 467 524.167 467L504.833 467C502.164 467 500 464.836 500 462.167Z" stroke="#000000" stroke-width="4" stroke-miterlimit="8" fill="#C55A11" fill-rule="evenodd"/><text fill="#FFFFFF" font-family="Calibri,Calibri_MSFontService,sans-serif" font-weight="700" font-size="24" transform="translate(508.772 459)">F</text><path d="M501 577.833C501 575.164 503.164 573 505.833 573L525.167 573C527.836 573 530 575.164 530 577.833L530 600.167C530 602.836 527.836 605 525.167 605L505.833 605C503.164 605 501 602.836 501 600.167Z" fill="#C55A11" fill-rule="evenodd"/><text fill="#FFFFFF" font-family="Calibri,Calibri_MSFontService,sans-serif" font-weight="700" font-size="24" transform="translate(510.26 596)">F</text><path d="M502 654.833C502 652.164 504.164 650 506.833 650L526.167 650C528.836 650 531 652.164 531 654.833L531 677.167C531 679.836 528.836 682 526.167 682L506.833 682C504.164 682 502 679.836 502 677.167Z" stroke="#000000" stroke-width="4" stroke-miterlimit="8" fill="#C55A11" fill-rule="evenodd"/><text fill="#FFFFFF" font-family="Calibri,Calibri_MSFontService,sans-serif" font-weight="700" font-size="24" transform="translate(511.376 673)">F</text><path d="M537 578.833C537 576.164 539.164 574 541.833 574L561.167 574C563.836 574 566 576.164 566 578.833L566 601.167C566 603.836 563.836 606 561.167 606L541.833 606C539.164 606 537 603.836 537 601.167Z" stroke="#000000" stroke-width="4" stroke-miterlimit="8" fill="#C55A11" fill-rule="evenodd"/><text fill="#FFFFFF" font-family="Calibri,Calibri_MSFontService,sans-serif" font-weight="700" font-size="24" transform="translate(546.354 598)">F</text><path d="M538 656.833C538 654.164 540.164 652 542.833 652L562.167 652C564.836 652 567 654.164 567 656.833L567 679.167C567 681.836 564.836 684 562.167 684L542.833 684C540.164 684 538 681.836 538 679.167Z" fill="#C55A11" fill-rule="evenodd"/><text fill="#FFFFFF" font-family="Calibri,Calibri_MSFontService,sans-serif" font-weight="700" font-size="24" transform="translate(546.725 675)">F<tspan fill="#000000" font-weight="400" x="-475.73" y="-410">100 000</tspan><tspan fill="#000000" font-weight="400" x="-475.73" y="-199">100 000</tspan><tspan fill="#000000" font-weight="400" x="-474.798" y="24">100 000</tspan></text><path d="M718 136.5C718 132.91 720.91 130 724.5 130L774.5 130C778.09 130 781 132.91 781 136.5L781 162.5C781 166.09 778.09 169 774.5 169L724.5 169C720.91 169 718 166.09 718 162.5Z" fill="#8FAADC" fill-rule="evenodd"/><text fill="#FFFFFF" font-family="Calibri,Calibri_MSFontService,sans-serif" font-weight="700" font-size="24" transform="translate(738.981 157)">M</text><path d="M793 136.333C793 132.836 795.836 130 799.333 130L849.667 130C853.164 130 856 132.836 856 136.333L856 161.667C856 165.164 853.164 168 849.667 168L799.333 168C795.836 168 793 165.164 793 161.667Z" fill="#C55A11" fill-rule="evenodd"/><text fill="#FFFFFF" font-family="Calibri,Calibri_MSFontService,sans-serif" font-weight="700" font-size="24" transform="translate(819.047 157)">F<tspan fill="#000000" font-weight="400" x="-64.425" y="45">50 000</tspan></text><path d="M796 440.5C796 436.91 798.91 434 802.5 434L852.5 434C856.09 434 859 436.91 859 440.5L859 466.5C859 470.09 856.09 473 852.5 473L802.5 473C798.91 473 796 470.09 796 466.5Z" fill="#8FAADC" fill-rule="evenodd"/><text fill="#FFFFFF" font-family="Calibri,Calibri_MSFontService,sans-serif" font-weight="700" font-size="24" transform="translate(817.116 461)">M</text><path d="M719 440.167C719 436.761 721.761 434 725.167 434L775.833 434C779.239 434 782 436.761 782 440.167L782 464.833C782 468.239 779.239 471 775.833 471L725.167 471C721.761 471 719 468.239 719 464.833Z" fill="#C55A11" fill-rule="evenodd"/><text fill="#FFFFFF" font-family="Calibri,Calibri_MSFontService,sans-serif" font-weight="700" font-size="24" transform="translate(745.305 460)">F<tspan fill="#000000" font-weight="400" x="15.1" y="42">50 000</tspan><tspan fill="#000000" font-weight="400" x="-28.2025" y="-200">Solo per la </tspan><tspan fill="#000000" x="80.1309" y="-200">meta’</tspan><tspan fill="#000000" font-weight="400" x="-28.2025" y="-171">delle famiglie del </tspan><tspan fill="#000000" font-weight="400" x="-28.2025" y="-142">tipo </tspan><tspan fill="#000000" x="16.1309" y="-142">MF</tspan><tspan fill="#000000" font-weight="400" x="53.6309" y="-142">(o FM) il </tspan><tspan fill="#000000" x="-28.2025" y="-113">genitore dira’ </tspan><tspan fill="#000000" font-weight="400" x="110.344" y="-113">di </tspan><tspan fill="#000000" font-weight="400" x="-28.2025" y="-84">avere una fammina!</tspan></text><path d="M725 616.334C725 610.626 729.626 606 735.334 606L776.666 606C782.374 606 787 610.626 787 616.334L787 658.666C787 664.374 782.374 669 776.666 669L735.334 669C729.626 669 725 664.374 725 658.666Z" fill="#C55A11" fill-rule="evenodd"/><text fill="#FFFFFF" font-family="Calibri,Calibri_MSFontService,sans-serif" font-weight="700" font-size="24" transform="translate(750.501 645)">F</text><path d="M800 616.334C800 610.626 804.626 606 810.334 606L851.666 606C857.374 606 862 610.626 862 616.334L862 658.666C862 664.374 857.374 669 851.666 669L810.334 669C804.626 669 800 664.374 800 658.666Z" fill="#C55A11" fill-rule="evenodd"/><text fill="#FFFFFF" font-family="Calibri,Calibri_MSFontService,sans-serif" font-weight="700" font-size="24" transform="translate(825.566 645)">F<tspan fill="#000000" font-weight="400" x="-71.118" y="57">100 000</tspan><tspan fill="#000000" x="-108.464" y="-528">Popolazione</tspan><tspan fill="#000000" font-weight="400" x="18.6496" y="-528">C</tspan><tspan fill="#000000" font-weight="400" x="66.4374" y="-30">In </tspan><tspan fill="#000000" x="90.604" y="-30">tutte </tspan><tspan fill="#000000" font-weight="400" x="145.364" y="-30">le famiglie del tipo </tspan><tspan fill="#000000" x="331.231" y="-30">FF,</tspan><tspan fill="#000000" font-weight="400" x="362.844" y="-30">il </tspan><tspan fill="#000000" x="66.4374" y="-1">genitore</tspan><tspan fill="#000000" font-weight="400" x="154.844" y="-1">parlando di un solo figlio </tspan><tspan fill="#000000" font-weight="400" x="66.4374" y="28">dira’ di avere una fammina!</tspan></text><path d="M200.026 194.077 223.856 186.134 248.394 178.622 261.185 175.111 274.474 171.851 288.268 168.842 302.692 166.208 317.801 163.951 333.587 162.071 349.927 160.444 366.702 159.067 401.163 156.815 428.933 155.387 429.087 158.383 401.327 159.811 401.348 159.809 366.91 162.059 366.935 162.058 350.185 163.433 350.211 163.43 333.899 165.055 333.927 165.052 318.177 166.927 318.222 166.921 303.159 169.171 303.207 169.163 288.832 171.788 288.882 171.778 275.132 174.778 275.17 174.769 261.92 178.019 261.96 178.009 249.21 181.509 249.252 181.497 224.752 188.997 224.787 188.986 200.974 196.923ZM427.281 152.468 436.5 156.5 427.743 161.456Z" fill="#4472C4"/><path d="M-0.383421 29.5498 23.5074 23.2331 48.1634 17.2882 61.0059 14.4691 74.2934 11.8367 88.205 9.51806 102.68 7.38756 117.903 5.6335 133.681 4.06815 150.083 2.8161 166.913 1.75247 201.555-0.0609066 229.445-1.19424 229.567 1.80328 201.686 2.93626 201.703 2.93545 167.078 4.74795 167.095 4.74701 150.282 5.80951 150.302 5.80815 133.927 7.05815 133.961 7.05517 118.211 8.61767 118.234 8.61514 103.047 10.3651 103.093 10.359 88.6559 12.484 88.6841 12.4796 74.8091 14.7921 74.854 14.7839 61.604 17.4089 61.6341 17.4026 48.8216 20.2151 48.8516 20.2082 24.2266 26.1457 24.2584 26.1377 0.383421 32.4502ZM227.825-4.13087 237 0 228.19 4.86171Z" fill="#4472C4" transform="matrix(1 0 0 -1 202.5 231.5)"/><text font-family="Calibri,Calibri_MSFontService,sans-serif" font-weight="400" font-size="19" transform="translate(447.286 160)">1/2<tspan x="-0.625092" y="76">1/2</tspan></text><path d="M204.026 405.077 227.856 397.134 252.394 389.622 265.185 386.111 278.474 382.851 292.268 379.842 306.692 377.208 321.801 374.951 337.587 373.071 353.927 371.444 370.702 370.067 405.163 367.815 432.933 366.387 433.087 369.383 405.327 370.811 405.348 370.809 370.91 373.059 370.935 373.058 354.185 374.433 354.211 374.43 337.899 376.055 337.927 376.052 322.177 377.927 322.222 377.921 307.159 380.171 307.207 380.163 292.832 382.788 292.882 382.778 279.132 385.778 279.17 385.769 265.92 389.019 265.96 389.009 253.21 392.509 253.252 392.497 228.752 399.997 228.787 399.986 204.974 407.923ZM431.281 363.468 440.5 367.5 431.743 372.456Z" fill="#4472C4"/><path d="M-0.394035 30.5527 23.4952 24.0488 48.153 17.8531 60.9992 14.9705 74.2836 12.276 88.1985 9.83152 102.674 7.70094 117.897 5.8216 133.679 4.25593 150.077 2.94151 166.911 1.81512 201.554 0.00166205 229.443-1.18092 229.57 1.81639 201.689 2.99865 201.703 2.99795 167.078 4.81045 167.1 4.80915 150.288 5.93415 150.307 5.9327 133.932 7.2452 133.961 7.24267 118.211 8.80517 118.246 8.8012 103.059 10.6762 103.093 10.6715 88.6559 12.7965 88.697 12.7899 74.822 15.2274 74.8607 15.2201 61.6107 17.9076 61.6409 17.9011 48.8284 20.7761 48.8655 20.7673 24.2405 26.9548 24.269 26.9473 0.394035 33.4473ZM227.817-4.11468 237 0 228.199 4.87724Z" fill="#4472C4" transform="matrix(1 0 0 -1 206.5 442.5)"/><text font-family="Calibri,Calibri_MSFontService,sans-serif" font-weight="400" font-size="19" transform="translate(457.353 366)">1/2<tspan x="-2.1326" y="82">1/2</tspan></text><path d="M213.026 626.077 236.856 618.134 261.394 610.622 274.185 607.111 287.474 603.851 301.268 600.842 315.692 598.208 330.801 595.951 346.587 594.071 362.927 592.444 379.702 591.067 414.163 588.815 441.933 587.387 442.087 590.383 414.327 591.811 414.348 591.809 379.91 594.059 379.935 594.058 363.185 595.433 363.211 595.43 346.899 597.055 346.927 597.052 331.177 598.927 331.222 598.921 316.159 601.171 316.207 601.163 301.832 603.788 301.882 603.778 288.132 606.778 288.17 606.769 274.92 610.019 274.96 610.009 262.21 613.509 262.252 613.497 237.752 620.997 237.787 620.986 213.974 628.923ZM440.281 584.468 449.5 588.5 440.743 593.456Z" fill="#4472C4"/><path d="M-0.394035 30.5527 23.4952 24.0488 48.153 17.8531 60.9992 14.9705 74.2836 12.276 88.1985 9.83152 102.674 7.70094 117.897 5.8216 133.679 4.25593 150.077 2.94151 166.911 1.81512 201.554 0.00166205 229.443-1.18092 229.57 1.81639 201.689 2.99865 201.703 2.99795 167.078 4.81045 167.1 4.80915 150.288 5.93415 150.307 5.9327 133.932 7.2452 133.961 7.24267 118.211 8.80517 118.246 8.8012 103.059 10.6762 103.093 10.6715 88.6559 12.7965 88.697 12.7899 74.822 15.2274 74.8607 15.2201 61.6107 17.9076 61.6409 17.9011 48.8284 20.7761 48.8655 20.7673 24.2405 26.9548 24.269 26.9473 0.394035 33.4473ZM227.817-4.11468 237 0 228.199 4.87724Z" fill="#4472C4" transform="matrix(1 0 0 -1 215.5 663.5)"/><text font-family="Calibri,Calibri_MSFontService,sans-serif" font-weight="400" font-size="19" transform="translate(460.289 669)">1/2<tspan x="-0.365784" y="-72">1/2</tspan></text><path d="M583.216 154.027 595.852 151.588 608.882 149.27 622.668 147.202 629.949 146.26 637.606 145.444 645.636 144.754 654.035 144.19 671.557 143.252 689.824 142.563 700.958 142.227 701.049 145.226 689.92 145.562 689.932 145.561 671.682 146.249 671.705 146.248 654.205 147.185 654.226 147.184 645.851 147.747 645.878 147.745 637.878 148.432 637.909 148.429 630.284 149.242 630.317 149.238 623.067 150.175 623.098 150.171 609.348 152.233 609.388 152.227 596.388 154.539 596.409 154.535 583.784 156.973ZM699.368 139.274 708.5 143.5 699.64 148.27Z" fill="#4472C4"/><path d="M-0.213161 7.51522 12.4184 5.70179 25.4436 3.94839 39.2229 2.4452 46.4929 1.7558 54.1419 1.12883 62.1641 0.627442 70.5537 0.189176 88.0723-0.56162 106.337-1.06202 117.467-1.32346 117.537 1.67571 106.41 1.93709 106.416 1.93694 88.1661 2.43694 88.1892 2.43612 70.6892 3.18612 70.7033 3.18546 62.3283 3.62296 62.3436 3.62208 54.3436 4.12208 54.3725 4.11999 46.7475 4.74499 46.7666 4.7433 39.5166 5.4308 39.5377 5.42865 25.7877 6.92865 25.8251 6.92409 12.8251 8.67409 12.8382 8.67228 0.213161 10.4848ZM115.897-4.28741 125 0 116.108 4.71011Z" fill="#4472C4" transform="matrix(1 0 0 -1 581.5 453.5)"/><path d="M580.317 582.074 601.654 579.446 622.583 577.566 632.776 577.063 642.67 577.063 652.2 577.631 661.373 578.769 670.063 580.609 678.364 583.143 686.269 586.179 693.861 589.659 708.318 597.579 715.912 602.278 714.333 604.829 706.773 600.151 706.842 600.191 692.467 592.316 692.563 592.364 685.063 588.926 685.15 588.963 677.337 585.963 677.437 585.997 669.25 583.497 669.377 583.53 660.814 581.718 660.94 581.739 651.878 580.614 651.973 580.622 642.536 580.06 642.625 580.063 632.813 580.063 632.887 580.061 622.762 580.561 622.822 580.557 601.947 582.432 601.996 582.426 580.683 585.051ZM716.215 598.938 721.5 607.5 711.479 606.591Z" fill="#4472C4"/><path d="M-0.0971408 1.12815 21.105-0.2478 41.8315-1.18707 61.6354-1.43775 71.1347-1.18611 80.134-0.556792 88.7639 0.388083 96.9671 1.71323 112.24 5.04434 126.622 9.12652 133.318 11.2779 132.401 14.1341 125.729 11.9906 125.778 12.0055 111.465 7.943 111.555 7.96555 96.3679 4.65305 96.4483 4.6683 88.3233 3.3558 88.3992 3.36609 79.8367 2.42859 79.8954 2.43385 70.9579 1.80885 71.0228 1.81197 61.5853 1.56197 61.644 1.56238 41.894 1.81238 41.9429 1.81096 21.2554 2.74846 21.2846 2.74685 0.0971408 4.12185ZM132.808 7.96284 140 15 130.055 16.5315Z" fill="#4472C4" transform="matrix(1 0 0 -1 581.5 666.5)"/><path d="M828 12.1668C828 7.65641 831.656 4 836.167 4L906.833 4C911.344 4 915 7.65641 915 12.1668L915 44.8332C915 49.3436 911.344 53 906.833 53L836.167 53C831.656 53 828 49.3436 828 44.8332Z" fill="#C5E0B4" fill-rule="evenodd"/><text font-family="Calibri,Calibri_MSFontService,sans-serif" font-weight="400" font-size="19" transform="translate(914.273 34)">= famiglie che contribuiscono alla <tspan font-weight="700" x="256.987" y="0">popolazione</tspan></text><path d="M881 67.8334C881 65.164 883.164 63 885.833 63L905.167 63C907.836 63 910 65.164 910 67.8334L910 90.1666C910 92.836 907.836 95 905.167 95L885.833 95C883.164 95 881 92.836 881 90.1666Z" stroke="#000000" stroke-width="4" stroke-miterlimit="8" fill="none" fill-rule="evenodd"/><text font-family="Calibri,Calibri_MSFontService,sans-serif" font-weight="400" font-size="19" transform="translate(918.475 86)">= Persona di cui il genitore <tspan font-weight="700" x="203.727" y="0">decide</tspan><tspan x="259.06" y="0">di parlare</tspan></text></g></svg>