<svg width="1280" height="720" xmlns="http://www.w3.org/2000/svg" xmlns:xlink="http://www.w3.org/1999/xlink" overflow="hidden"><defs><clipPath id="clip0"><path d="M0 0 1280 0 1280 720 0 720Z" fill-rule="evenodd" clip-rule="evenodd"/></clipPath></defs><g clip-path="url(#clip0)"><rect x="0" y="0" width="1280" height="720" fill="#FFFFFF"/><path d="M664 173.167C664 168.656 667.656 165 672.167 165L741.833 165C746.344 165 750 168.656 750 173.167L750 205.833C750 210.344 746.344 214 741.833 214L672.167 214C667.656 214 664 210.344 664 205.833Z" fill="#C5E0B4" fill-rule="evenodd"/><path d="M663 343C663 338.582 666.582 335 671 335L742 335C746.418 335 750 338.582 750 343L750 375C750 379.418 746.418 383 742 383L671 383C666.582 383 663 379.418 663 375Z" fill="#C5E0B4" fill-rule="evenodd"/><path d="M666 640.167C666 635.656 669.656 632 674.167 632L744.833 632C749.344 632 753 635.656 753 640.167L753 672.833C753 677.344 749.344 681 744.833 681L674.167 681C669.656 681 666 677.344 666 672.833Z" fill="#C5E0B4" fill-rule="evenodd"/><path d="M666 464C666 459.582 669.582 456 674 456L745 456C749.418 456 753 459.582 753 464L753 496C753 500.418 749.418 504 745 504L674 504C669.582 504 666 500.418 666 496Z" fill="#C5E0B4" fill-rule="evenodd"/><path d="M675 132.833C675 130.164 677.164 128 679.833 128L699.167 128C701.836 128 704 130.164 704 132.833L704 155.167C704 157.836 701.836 160 699.167 160L679.833 160C677.164 160 675 157.836 675 155.167Z" fill="#8FAADC" fill-rule="evenodd"/><text fill="#FFFFFF" font-family="Calibri,Calibri_MSFontService,sans-serif" font-weight="700" font-size="24" transform="translate(679.125 152)">M</text><path d="M709 132.833C709 130.164 711.164 128 713.833 128L733.167 128C735.836 128 738 130.164 738 132.833L738 155.167C738 157.836 735.836 160 733.167 160L713.833 160C711.164 160 709 157.836 709 155.167Z" fill="#C55A11" fill-rule="evenodd"/><text fill="#FFFFFF" font-family="Calibri,Calibri_MSFontService,sans-serif" font-weight="700" font-size="24" transform="translate(719.554 152)">f</text><path d="M677 176.833C677 174.164 679.164 172 681.833 172L701.167 172C703.836 172 706 174.164 706 176.833L706 199.167C706 201.836 703.836 204 701.167 204L681.833 204C679.164 204 677 201.836 677 199.167Z" fill="#8FAADC" fill-rule="evenodd"/><text fill="#FFFFFF" font-family="Calibri,Calibri_MSFontService,sans-serif" font-weight="700" font-size="24" transform="translate(680.612 196)">M</text><path d="M710 176.833C710 174.164 712.164 172 714.833 172L734.167 172C736.836 172 739 174.164 739 176.833L739 199.167C739 201.836 736.836 204 734.167 204L714.833 204C712.164 204 710 201.836 710 199.167Z" stroke="#000000" stroke-width="4" stroke-miterlimit="8" fill="#C55A11" fill-rule="evenodd"/><text fill="#FFFFFF" font-family="Calibri,Calibri_MSFontService,sans-serif" font-weight="700" font-size="24" transform="translate(720.876 196)">J<tspan fill="#000000" font-weight="400" x="-311.07" y="-164">Il genitore ci dice </tspan><tspan fill="#000000" font-weight="400" x="-139.817" y="-164">che la ragazza </tspan><tspan fill="#000000" font-weight="400" x="-311.07" y="-135">si chiama </tspan><tspan fill="#000000" x="-214.737" y="-135">Jane</tspan></text><path d="M711 301.667C711 299.089 713.089 297 715.667 297L734.333 297C736.911 297 739 299.089 739 301.667L739 324.333C739 326.911 736.911 329 734.333 329L715.667 329C713.089 329 711 326.911 711 324.333Z" fill="#8FAADC" fill-rule="evenodd"/><text fill="#FFFFFF" font-family="Calibri,Calibri_MSFontService,sans-serif" font-weight="700" font-size="24" transform="translate(714.474 321)">M</text><path d="M673 301.833C673 299.164 675.164 297 677.833 297L697.167 297C699.836 297 702 299.164 702 301.833L702 324.167C702 326.836 699.836 329 697.167 329L677.833 329C675.164 329 673 326.836 673 324.167Z" fill="#C55A11" fill-rule="evenodd"/><text fill="#FFFFFF" font-family="Calibri,Calibri_MSFontService,sans-serif" font-weight="700" font-size="24" transform="translate(683.462 321)">f</text><path d="M712 347.833C712 345.164 714.164 343 716.833 343L736.167 343C738.836 343 741 345.164 741 347.833L741 370.167C741 372.836 738.836 375 736.167 375L716.833 375C714.164 375 712 372.836 712 370.167Z" fill="#8FAADC" fill-rule="evenodd"/><text fill="#FFFFFF" font-family="Calibri,Calibri_MSFontService,sans-serif" font-weight="700" font-size="24" transform="translate(715.962 367)">M</text><path d="M674 347.833C674 345.164 676.164 343 678.833 343L698.167 343C700.836 343 703 345.164 703 347.833L703 370.167C703 372.836 700.836 375 698.167 375L678.833 375C676.164 375 674 372.836 674 370.167Z" stroke="#000000" stroke-width="4" stroke-miterlimit="8" fill="#C55A11" fill-rule="evenodd"/><text fill="#FFFFFF" font-family="Calibri,Calibri_MSFontService,sans-serif" font-weight="700" font-size="24" transform="translate(684.783 367)">J</text><path d="M678 468.833C678 466.164 680.164 464 682.833 464L702.167 464C704.836 464 707 466.164 707 468.833L707 491.167C707 493.836 704.836 496 702.167 496L682.833 496C680.164 496 678 493.836 678 491.167Z" fill="#C55A11" fill-rule="evenodd"/><text fill="#FFFFFF" font-family="Calibri,Calibri_MSFontService,sans-serif" font-weight="700" font-size="24" transform="translate(688.64 487)">f</text><path d="M676 645.833C676 643.164 678.164 641 680.833 641L700.167 641C702.836 641 705 643.164 705 645.833L705 668.167C705 670.836 702.836 673 700.167 673L680.833 673C678.164 673 676 670.836 676 668.167Z" stroke="#000000" stroke-width="4" stroke-miterlimit="8" fill="#C55A11" fill-rule="evenodd"/><text fill="#FFFFFF" font-family="Calibri,Calibri_MSFontService,sans-serif" font-weight="700" font-size="24" transform="translate(686.618 665)">J</text><path d="M499 576.833C499 574.164 501.164 572 503.833 572L523.167 572C525.836 572 528 574.164 528 576.833L528 599.167C528 601.836 525.836 604 523.167 604L503.833 604C501.164 604 499 601.836 499 599.167Z" fill="#C55A11" fill-rule="evenodd"/><text fill="#FFFFFF" font-family="Calibri,Calibri_MSFontService,sans-serif" font-weight="700" font-size="24" transform="translate(509.651 596)">f</text><path d="M714 468.833C714 466.164 716.164 464 718.833 464L738.167 464C740.836 464 743 466.164 743 468.833L743 491.167C743 493.836 740.836 496 738.167 496L718.833 496C716.164 496 714 493.836 714 491.167Z" stroke="#000000" stroke-width="4" stroke-miterlimit="8" fill="#C55A11" fill-rule="evenodd"/><text fill="#FFFFFF" font-family="Calibri,Calibri_MSFontService,sans-serif" font-weight="700" font-size="24" transform="translate(724.567 488)">J</text><path d="M711 646.833C711 644.164 713.164 642 715.833 642L735.167 642C737.836 642 740 644.164 740 646.833L740 669.167C740 671.836 737.836 674 735.167 674L715.833 674C713.164 674 711 671.836 711 669.167Z" fill="#C55A11" fill-rule="evenodd"/><text fill="#FFFFFF" font-family="Calibri,Calibri_MSFontService,sans-serif" font-weight="700" font-size="24" transform="translate(722.133 666)">f</text><path d="M533 576.833C533 574.164 535.164 572 537.833 572L557.167 572C559.836 572 562 574.164 562 576.833L562 599.167C562 601.836 559.836 604 557.167 604L537.833 604C535.164 604 533 601.836 533 599.167Z" fill="#C55A11" fill-rule="evenodd"/><text fill="#FFFFFF" font-family="Calibri,Calibri_MSFontService,sans-serif" font-weight="700" font-size="24" transform="translate(543.512 596)">f</text><path d="M39 175.333C39 171.836 41.8356 169 45.3335 169L95.6665 169C99.1644 169 102 171.836 102 175.333L102 200.667C102 204.164 99.1644 207 95.6665 207L45.3335 207C41.8356 207 39 204.164 39 200.667Z" fill="#8FAADC" fill-rule="evenodd"/><text fill="#FFFFFF" font-family="Calibri,Calibri_MSFontService,sans-serif" font-weight="700" font-size="24" transform="translate(59.978 196)">M</text><path d="M114 175.167C114 171.761 116.761 169 120.167 169L170.833 169C174.239 169 177 171.761 177 175.167L177 199.833C177 203.239 174.239 206 170.833 206L120.167 206C116.761 206 114 203.239 114 199.833Z" fill="#C55A11" fill-rule="evenodd"/><text fill="#FFFFFF" font-family="Calibri,Calibri_MSFontService,sans-serif" font-weight="700" font-size="24" transform="translate(140.043 195)">F<tspan fill="#000000" font-weight="400" x="-64.425" y="45">50 000</tspan></text><path d="M119 327.333C119 323.836 121.836 321 125.333 321L175.667 321C179.164 321 182 323.836 182 327.333L182 352.667C182 356.164 179.164 359 175.667 359L125.333 359C121.836 359 119 356.164 119 352.667Z" fill="#8FAADC" fill-rule="evenodd"/><text fill="#FFFFFF" font-family="Calibri,Calibri_MSFontService,sans-serif" font-weight="700" font-size="24" transform="translate(140.143 348)">M</text><path d="M42 327.167C42 323.761 44.7609 321 48.1668 321L98.8333 321C102.239 321 105 323.761 105 327.167L105 351.833C105 355.239 102.239 358 98.8333 358L48.1668 358C44.7609 358 42 355.239 42 351.833Z" fill="#C55A11" fill-rule="evenodd"/><text fill="#FFFFFF" font-family="Calibri,Calibri_MSFontService,sans-serif" font-weight="700" font-size="24" transform="translate(68.3326 347)">F<tspan fill="#000000" font-weight="400" x="15.1" y="41">50 000</tspan><tspan fill="#000000" font-weight="400" x="1016.98" y="-38">Solo per 100 </tspan><tspan fill="#000000" font-weight="400" x="1016.98" y="-9">famiglie con un </tspan><tspan fill="#000000" x="1016.98" y="20">M</tspan><tspan fill="#000000" font-weight="400" x="1037.98" y="20">aschio e </tspan><tspan fill="#000000" x="1122.81" y="20">J</tspan><tspan fill="#000000" font-weight="400" x="1130.81" y="20">ane il </tspan><tspan fill="#000000" font-weight="400" x="1016.98" y="49">genitore ci dira’ il </tspan><tspan fill="#000000" font-weight="400" x="1016.98" y="78">nome della ragazza</tspan></text><path d="M44 598.5C44 592.701 48.7011 588 54.5002 588L96.4998 588C102.299 588 107 592.701 107 598.5L107 640.5C107 646.299 102.299 651 96.4998 651L54.5002 651C48.7011 651 44 646.299 44 640.5Z" fill="#C55A11" fill-rule="evenodd"/><text fill="#FFFFFF" font-family="Calibri,Calibri_MSFontService,sans-serif" font-weight="700" font-size="24" transform="translate(70.078 627)">F</text><path d="M119 598.5C119 592.701 123.701 588 129.5 588L171.5 588C177.299 588 182 592.701 182 598.5L182 640.5C182 646.299 177.299 651 171.5 651L129.5 651C123.701 651 119 646.299 119 640.5Z" fill="#C55A11" fill-rule="evenodd"/><text fill="#FFFFFF" font-family="Calibri,Calibri_MSFontService,sans-serif" font-weight="700" font-size="24" transform="translate(145.143 627)">F<tspan fill="#000000" font-weight="400" x="-71.118" y="57">100 000</tspan></text><path d="M25 149.662C25 134.385 37.3849 122 52.6625 122L163.309 122C178.586 122 190.971 134.385 190.971 149.662L190.971 671.338C190.971 686.615 178.586 699 163.309 699L52.6625 699C37.3849 699 25 686.615 25 671.338Z" stroke="#2F528F" stroke-width="2" stroke-miterlimit="8" fill="none" fill-rule="evenodd"/><text font-family="Calibri,Calibri_MSFontService,sans-serif" font-weight="700" font-size="24" transform="translate(38.0992 102)">Popolazione C<tspan font-weight="400" x="1023.59" y="402">Quando ci sono 2 </tspan><tspan font-weight="400" x="1023.59" y="431">femmine, il genitore </tspan><tspan font-weight="400" x="1023.59" y="460">potrebbe decidere di </tspan><tspan font-weight="400" x="1023.59" y="489">dirci il nome dell’</tspan><tspan x="1191.07" y="489">altra</tspan><tspan x="1023.59" y="518">ragazza</tspan><tspan font-weight="400" x="1096.68" y="518">!</tspan><tspan font-weight="400" x="1023.59" y="546">In</tspan><tspan font-weight="400" x="1047.76" y="546">questi</tspan><tspan font-weight="400" x="1113.16" y="546">casi la sua </tspan><tspan font-weight="400" x="1023.59" y="575">famiglia va tolta dalla </tspan><tspan font-weight="400" x="1023.59" y="604">popolazione!</tspan><tspan font-weight="400" font-size="19" x="554.776" y="43">99/100</tspan><tspan font-weight="400" font-size="19" x="563.167" y="97">1/100</tspan><tspan font-weight="400" font-size="19" x="549.886" y="217">99/100</tspan><tspan font-weight="400" font-size="19" x="557.614" y="263">1/100</tspan></text><path d="M679 517.833C679 515.164 681.164 513 683.833 513L703.167 513C705.836 513 708 515.164 708 517.833L708 540.167C708 542.836 705.836 545 703.167 545L683.833 545C681.164 545 679 542.836 679 540.167Z" stroke="#000000" stroke-width="4" stroke-miterlimit="8" fill="#C55A11" fill-rule="evenodd"/><text fill="#FFFFFF" font-family="Calibri,Calibri_MSFontService,sans-serif" font-weight="700" font-size="24" transform="translate(689.196 537)">f</text><path d="M715 516.833C715 514.164 717.164 512 719.833 512L739.167 512C741.836 512 744 514.164 744 516.833L744 539.167C744 541.836 741.836 544 739.167 544L719.833 544C717.164 544 715 541.836 715 539.167Z" fill="#C55A11" fill-rule="evenodd"/><text fill="#FFFFFF" font-family="Calibri,Calibri_MSFontService,sans-serif" font-weight="700" font-size="24" transform="translate(725.124 536)">J</text><path d="M676 690.833C676 688.164 678.164 686 680.833 686L700.167 686C702.836 686 705 688.164 705 690.833L705 713.167C705 715.836 702.836 718 700.167 718L680.833 718C678.164 718 676 715.836 676 713.167Z" fill="#C55A11" fill-rule="evenodd"/><text fill="#FFFFFF" font-family="Calibri,Calibri_MSFontService,sans-serif" font-weight="700" font-size="24" transform="translate(686.242 710)">J</text><path d="M712 690.833C712 688.164 714.164 686 716.833 686L736.167 686C738.836 686 741 688.164 741 690.833L741 713.167C741 715.836 738.836 718 736.167 718L716.833 718C714.164 718 712 715.836 712 713.167Z" stroke="#000000" stroke-width="4" stroke-miterlimit="8" fill="#C55A11" fill-rule="evenodd"/><text fill="#FFFFFF" font-family="Calibri,Calibri_MSFontService,sans-serif" font-weight="700" font-size="24" transform="translate(722.689 710)">f</text><path d="M495 489.833C495 487.164 497.164 485 499.833 485L519.167 485C521.836 485 524 487.164 524 489.833L524 512.167C524 514.836 521.836 517 519.167 517L499.833 517C497.164 517 495 514.836 495 512.167Z" fill="#C55A11" fill-rule="evenodd"/><text fill="#FFFFFF" font-family="Calibri,Calibri_MSFontService,sans-serif" font-weight="700" font-size="24" transform="translate(505.774 508)">f</text><path d="M531 489.833C531 487.164 533.164 485 535.833 485L555.167 485C557.836 485 560 487.164 560 489.833L560 512.167C560 514.836 557.836 517 555.167 517L535.833 517C533.164 517 531 514.836 531 512.167Z" fill="#C55A11" fill-rule="evenodd"/><text fill="#FFFFFF" font-family="Calibri,Calibri_MSFontService,sans-serif" font-weight="700" font-size="24" transform="translate(541.701 509)">J</text><path d="M498 665.833C498 663.164 500.164 661 502.833 661L522.167 661C524.836 661 527 663.164 527 665.833L527 688.167C527 690.836 524.836 693 522.167 693L502.833 693C500.164 693 498 690.836 498 688.167Z" fill="#C55A11" fill-rule="evenodd"/><text fill="#FFFFFF" font-family="Calibri,Calibri_MSFontService,sans-serif" font-weight="700" font-size="24" transform="translate(508.625 685)">J</text><path d="M534 666.667C534 664.089 536.089 662 538.667 662L557.333 662C559.911 662 562 664.089 562 666.667L562 689.333C562 691.911 559.911 694 557.333 694L538.667 694C536.089 694 534 691.911 534 689.333Z" fill="#C55A11" fill-rule="evenodd"/><text fill="#FFFFFF" font-family="Calibri,Calibri_MSFontService,sans-serif" font-weight="700" font-size="24" transform="translate(544.14 686)">f<tspan fill="#000000" font-weight="400" font-size="19" x="-122.903" y="-94">98/100</tspan><tspan fill="#000000" font-weight="400" font-size="19" x="-113.188" y="-2">1/100</tspan><tspan fill="#000000" font-weight="400" font-size="19" x="-115.732" y="-177">1/100</tspan><tspan fill="#000000" font-weight="400" font-size="19" x="92.4315" y="-206">1/2</tspan><tspan fill="#000000" font-weight="400" font-size="19" x="91.4705" y="-155">1/2</tspan><tspan fill="#000000" font-weight="400" font-size="19" x="97.0532" y="-24">1/2</tspan><tspan fill="#000000" font-weight="400" font-size="19" x="95.5818" y="22">1/2</tspan><tspan fill="#000000" font-weight="400" x="431.591" y="-292">50</tspan><tspan fill="#000000" font-weight="400" x="436.099" y="-435">50</tspan></text><path d="M881 16.0001C881 13.2386 883.239 11 886 11L906 11C908.761 11 911 13.2386 911 16.0001L911 37.9999C911 40.7614 908.761 43 906 43L886 43C883.239 43 881 40.7614 881 37.9999Z" fill="#C55A11" fill-rule="evenodd"/><text fill="#FFFFFF" font-family="Calibri,Calibri_MSFontService,sans-serif" font-weight="700" font-size="24" transform="translate(892.356 34)">f<tspan fill="#000000" font-weight="400" font-size="19" x="28.7324" y="-2">= figlia femmina che </tspan><tspan fill="#000000" font-size="19" x="185.599" y="-2">NON</tspan><tspan fill="#000000" font-weight="400" font-size="19" x="227.099" y="-2">si chiama Jane</tspan></text><path d="M232.161 170.039 272.8 160.598 313.831 151.904 334.553 148.023 355.525 144.579 376.691 141.636 398.239 139.319 420.033 137.69 442.135 136.626 464.544 136.125 487.074 136.063 532.663 136.875 571.053 138.131 570.955 141.129 532.576 139.874 532.598 139.875 487.036 139.062 487.067 139.063 464.567 139.125 464.596 139.125 442.221 139.625 442.26 139.623 420.197 140.686 420.237 140.683 398.487 142.308 398.535 142.304 377.035 144.616 377.082 144.611 355.957 147.548 355.993 147.543 335.056 150.98 335.089 150.974 314.401 154.849 314.436 154.842 273.436 163.53 273.464 163.524 232.839 172.961ZM569.652 135.083 578.5 139.875 569.358 144.079Z" fill="#4472C4"/><path d="M-0.263686 24.5234 39.9963 17.3341 80.6471 10.6423 101.237 7.70087 122.013 5.07259 142.983 2.81907 164.333 1.06606 185.929-0.185888 207.834-0.999529 230.048-1.37496 252.383-1.43753 297.529-0.812243 335.539 0.127575 335.465 3.12666 297.463 2.18704 297.479 2.18736 252.354 1.56236 252.379 1.56249 230.067 1.62499 230.088 1.62479 207.9 1.99979 207.931 1.99897 186.056 2.81147 186.087 2.80999 164.524 4.05999 164.56 4.05747 143.248 5.80747 143.285 5.80391 122.348 8.05391 122.376 8.05064 101.626 10.6756 101.65 10.6724 81.0871 13.6099 81.1186 13.6051 40.4936 20.2926 40.5137 20.2891 0.263686 27.4766ZM334.114-2.90858 343 1.8125 333.892 6.08867Z" fill="#4472C4" transform="matrix(1 0 0 -1 239.5 202.5)"/><path d="M235.23 336.025 274.49 328.835 314.016 322.143 334.044 319.202 354.259 316.573 374.73 314.319 395.517 312.566 416.552 311.314 437.896 310.501 459.485 310.125 481.259 310.063 525.217 310.688 562.041 311.623 561.964 314.622 525.149 313.687 525.166 313.687 481.229 313.062 481.254 313.063 459.504 313.125 459.526 313.125 437.964 313.5 437.995 313.499 416.682 314.311 416.714 314.31 395.714 315.56 395.751 315.557 375.001 317.307 375.039 317.304 354.602 319.554 354.631 319.55 334.443 322.175 334.468 322.172 314.468 325.109 314.5 325.104 275 331.792 275.02 331.788 235.77 338.976ZM560.617 308.586 569.5 313.313 560.389 317.583Z" fill="#4472C4"/><path d="M-0.194901 17.5127 39.8751 12.2617 80.2736 7.38389 121.305 3.31825 142.208 1.69111 163.358 0.377028 184.885-0.561655 206.663-1.12486 250.939-1.43755 295.833-0.999869 333.528-0.32209 333.474 2.67742 295.786 1.99976 295.798 1.99993 250.923 1.56243 250.948 1.56246 206.698 1.87496 206.726 1.8745 184.976 2.437 185.003 2.43608 163.503 3.37358 163.531 3.37211 142.406 4.68461 142.429 4.68298 121.554 6.30798 121.585 6.30519 80.5854 10.3677 80.6173 10.3642 40.2423 15.2392 40.2574 15.2373 0.194901 20.4873ZM332.082-3.34857 341 1.3125 331.921 5.64997Z" fill="#4472C4" transform="matrix(1 0 0 -1 237.5 362.5)"/><path d="M-0.666423 39.6562 22.2866 28.2735 33.8159 22.8848 45.4167 17.7428 57.1608 13.0326 69.037 8.88535 80.9931 5.29851 93.213 2.527 105.554 0.512085 118.138-0.746285 130.771-1.37482 143.515-1.43759 156.371-1.12402 169.28-0.434696 187.623 0.853344 187.413 3.84598 169.082 2.55882 169.107 2.56037 156.232 1.87287 156.276 1.87455 143.463 1.56205 143.507 1.56248 130.82 1.62498 130.887 1.62315 118.325 2.24815 118.399 2.24256 105.899 3.49256 105.992 3.4804 93.7417 5.4804 93.8318 5.46285 81.7068 8.21285 81.806 8.18674 69.931 11.7492 69.9945 11.7286 58.182 15.8536 58.2459 15.8297 46.5584 20.5172 46.6078 20.4963 35.0453 25.6213 35.0726 25.6089 23.5726 30.9839 23.6039 30.9688 0.666423 42.3438ZM186.337-2.24436 195 2.875 185.707 6.73354Z" fill="#4472C4" transform="matrix(1 0 0 -1 224.5 682.5)"/><path d="M215 615.086 238.518 606.767 262.249 599.065 274.3 595.613 286.415 592.6 298.723 590.026 311.167 587.952 323.86 586.506 336.67 585.564 349.659 585.125 362.704 585.062 389.059 585.751 408.088 586.738 407.932 589.734 388.922 588.748 388.961 588.75 362.648 588.062 362.695 588.063 349.695 588.125 349.738 588.124 336.801 588.562 336.86 588.559 324.11 589.496 324.17 589.49 311.545 590.928 311.622 590.917 299.247 592.98 299.307 592.968 287.057 595.531 287.112 595.518 275.05 598.518 275.101 598.505 263.101 601.942 263.151 601.927 239.463 609.614 239.5 609.602 216 617.914ZM406.745 583.665 415.5 588.625 406.279 592.653Z" fill="#4472C4"/><path d="M217.421 588.459 229.427 576.014 241.507 563.809 253.66 552.032 265.891 540.867 278.205 530.69 290.716 521.574 297.032 517.531 303.345 513.87 309.794 510.582 316.25 507.734 322.774 505.327 329.304 503.362 335.949 501.843 342.604 500.638 355.915 499.314 369.403 499.125 382.93 499.817 396.491 501.261 410.153 503.078 416.323 504.045 415.858 507.009 409.705 506.044 409.74 506.049 396.115 504.237 396.154 504.242 382.654 502.804 382.736 502.811 369.298 502.123 369.396 502.125 356.021 502.312 356.149 502.305 342.961 503.618 343.08 503.601 336.517 504.789 336.584 504.775 330.022 506.275 330.12 506.249 323.682 508.186 323.769 508.157 317.332 510.532 317.418 510.497 311.043 513.31 311.119 513.274 304.744 516.524 304.815 516.485 298.565 520.11 298.621 520.076 292.371 524.076 292.446 524.025 280.008 533.087 280.081 533.031 267.831 543.156 267.886 543.108 255.699 554.233 255.731 554.202 243.606 565.952 243.629 565.93 231.566 578.118 231.58 578.104 219.58 590.542ZM415.305 500.849 423.5 506.688 413.912 509.74Z" fill="#4472C4"/><path d="M565.37 493.513 569.729 488.523 574.648 483.859 577.522 481.638 580.728 479.676 584.383 477.979 588.472 476.616 593.033 475.588 598.011 474.822 603.342 474.378 609.025 474.125 621.015 474.062 626.04 474.188 625.965 477.187 620.963 477.062 621.008 477.063 609.07 477.125 609.129 477.124 603.504 477.374 603.562 477.37 598.312 477.807 598.416 477.795 593.541 478.545 593.642 478.526 589.205 479.526 589.349 479.486 585.412 480.798 585.569 480.736 582.069 482.361 582.221 482.279 579.158 484.154 579.292 484.062 576.542 486.187 576.657 486.089 571.845 490.651 571.942 490.549 567.63 495.487ZM624.615 471.152 633.5 475.875 624.39 480.149Z" fill="#4472C4"/><path d="M-0.880163 10.7854 3.48616 7.62137 8.40394 4.68348 11.2791 3.24589 14.4606 2.07717 18.0673 0.982288 22.1186 0.146312 26.6408-0.490615 31.5759-0.93351 36.8763-1.24901 42.5419-1.37491 54.5073-1.43756 59.5233-1.36232 59.4783 1.63734 54.4775 1.56233 54.5079 1.56248 42.5704 1.62498 42.5958 1.62463 36.9708 1.74963 37.0266 1.74735 31.7766 2.05985 31.8216 2.0565 26.9466 2.494 27.0217 2.48534 22.5842 3.11034 22.6781 3.09405 18.7406 3.90655 18.8732 3.87282 15.3732 4.93532 15.4547 4.908 12.3922 6.033 12.5458 5.96664 9.79582 7.34164 9.89428 7.28771 5.08178 10.1627 5.19266 10.0896 0.880163 13.2146ZM58.0685-4.38448 67 0.25 57.9335 4.61451Z" fill="#4472C4" transform="matrix(1 0 0 -1 569.5 521.5)"/><path d="M569.347 671.541 573.7 666.304 578.621 661.32 581.496 659.033 584.699 656.941 588.363 655.174 592.452 653.746 597.023 652.652 602.002 651.886 607.333 651.378 613.025 651.125 625.015 651.062 630.04 651.188 629.965 654.187 624.963 654.062 625.008 654.063 613.07 654.125 613.129 654.124 607.504 654.374 607.58 654.368 602.33 654.868 602.416 654.858 597.541 655.608 597.662 655.584 593.224 656.646 593.37 656.604 589.432 657.979 589.589 657.914 586.089 659.601 586.258 659.506 583.195 661.506 583.309 661.424 580.559 663.611 580.693 663.491 575.88 668.366 575.966 668.271 571.654 673.459ZM628.615 648.152 637.5 652.875 628.39 657.149Z" fill="#4472C4"/><path d="M-0.880163 10.7854 3.48616 7.62137 8.40394 4.68348 11.2791 3.24589 14.4606 2.07717 18.0673 0.982288 22.1186 0.146312 26.6408-0.490615 31.5759-0.93351 36.8763-1.24901 42.5419-1.37491 54.5073-1.43756 59.5233-1.36232 59.4783 1.63734 54.4775 1.56233 54.5079 1.56248 42.5704 1.62498 42.5958 1.62463 36.9708 1.74963 37.0266 1.74735 31.7766 2.05985 31.8216 2.0565 26.9466 2.494 27.0217 2.48534 22.5842 3.11034 22.6781 3.09405 18.7406 3.90655 18.8732 3.87282 15.3732 4.93532 15.4547 4.908 12.3922 6.033 12.5458 5.96664 9.79582 7.34164 9.89428 7.28771 5.08178 10.1627 5.19266 10.0896 0.880163 13.2146ZM58.0685-4.38448 67 0.25 57.9335 4.61451Z" fill="#4472C4" transform="matrix(1 0 0 -1 571.5 702.5)"/><path d="M959 202.833C959 200.164 961.164 198 963.833 198L983.167 198C985.836 198 988 200.164 988 202.833L988 225.167C988 227.836 985.836 230 983.167 230L963.833 230C961.164 230 959 227.836 959 225.167Z" fill="#8FAADC" fill-rule="evenodd"/><text fill="#FFFFFF" font-family="Calibri,Calibri_MSFontService,sans-serif" font-weight="700" font-size="24" transform="translate(962.976 221)">M</text><path d="M993 202.833C993 200.164 995.164 198 997.833 198L1017.17 198C1019.84 198 1022 200.164 1022 202.833L1022 225.167C1022 227.836 1019.84 230 1017.17 230L997.833 230C995.164 230 993 227.836 993 225.167Z" fill="#C55A11" fill-rule="evenodd"/><text fill="#FFFFFF" font-family="Calibri,Calibri_MSFontService,sans-serif" font-weight="700" font-size="24" transform="translate(1004.16 221)">j</text><path d="M760.387 183.629 774.405 182.565 781.756 182.188 789.556 182 797.99 182.126 807.045 182.629 817.035 183.508 827.962 184.89 834.316 185.897 841.776 187.276 850.044 188.841 858.996 190.719 868.436 192.72 878.073 194.785 897.394 199.162 906.588 201.226 915.284 203.291 915.274 203.288 923.153 205.102 930.033 206.728 936.557 208.289 935.858 211.207 929.343 209.647 922.468 208.022 922.476 208.024 914.596 206.211 905.904 204.147 905.922 204.151 896.731 202.088 877.419 197.713 877.436 197.717 867.814 195.655 858.38 193.656 849.442 191.781 849.471 191.786 841.221 190.224 841.227 190.225 833.79 188.85 833.828 188.857 827.515 187.857 827.562 187.863 816.687 186.488 816.743 186.494 806.806 185.619 806.854 185.623 797.854 185.123 797.915 185.125 789.54 185 789.599 185 781.849 185.187 781.889 185.186 774.577 185.561 774.614 185.558 760.614 186.621ZM935.8 205.022 943.5 211.5 933.698 213.773Z" fill="#4472C4"/><path d="M994 334.667C994 332.089 996.089 330 998.667 330L1017.33 330C1019.91 330 1022 332.089 1022 334.667L1022 357.333C1022 359.911 1019.91 362 1017.33 362L998.667 362C996.089 362 994 359.911 994 357.333Z" fill="#8FAADC" fill-rule="evenodd"/><text fill="#FFFFFF" font-family="Calibri,Calibri_MSFontService,sans-serif" font-weight="700" font-size="24" transform="translate(997.481 354)">M</text><path d="M956 334.833C956 332.164 958.164 330 960.833 330L980.167 330C982.836 330 985 332.164 985 334.833L985 357.167C985 359.836 982.836 362 980.167 362L960.833 362C958.164 362 956 359.836 956 357.167Z" fill="#C55A11" fill-rule="evenodd"/><text fill="#FFFFFF" font-family="Calibri,Calibri_MSFontService,sans-serif" font-weight="700" font-size="24" transform="translate(966.303 354)">J</text><path d="M-0.0678039-0.498467 13.753-1.12384 21.0933-1.37479 28.8121-1.43755 37.0892-1.37484 46.0639-1.1238 55.912-0.559261 66.6937 0.255636 72.97 0.883266 80.2931 1.69695 88.4928 2.63584 97.3198 3.76269 106.637 5.01333 106.632 5.01265 116.2 6.26332 135.272 8.88964 144.401 10.2028 144.394 10.2017 152.961 11.3899 160.715 12.5156 167.591 13.5156 173.797 14.4173 173.365 17.3861 167.159 16.4844 160.285 15.4844 152.535 14.3594 152.544 14.3608 143.978 13.1728 134.849 11.8597 134.858 11.861 115.795 9.23598 115.806 9.23735 106.241 7.98701 96.9254 6.73667 96.9351 6.73792 88.1226 5.61292 88.1419 5.61526 79.9544 4.67776 79.9594 4.67833 72.6469 3.86583 72.6632 3.86756 66.4132 3.24256 66.4494 3.24573 55.6994 2.43323 55.7267 2.43504 45.9142 1.87254 45.9581 1.87441 37.0206 1.62441 37.0511 1.62496 28.8011 1.56246 28.8247 1.56245 21.1372 1.62495 21.1763 1.62412 13.8638 1.87412 13.8803 1.87347 0.0678039 2.49847ZM172.756 11.2306 181 17 171.438 20.1336Z" fill="#4472C4" transform="matrix(1 0 0 -1 762.5 359.5)"/><path d="M957 532.833C957 530.164 959.164 528 961.833 528L981.167 528C983.836 528 986 530.164 986 532.833L986 555.167C986 557.836 983.836 560 981.167 560L961.833 560C959.164 560 957 557.836 957 555.167Z" fill="#C55A11" fill-rule="evenodd"/><text fill="#FFFFFF" font-family="Calibri,Calibri_MSFontService,sans-serif" font-weight="700" font-size="24" transform="translate(967.312 551)">f</text><path d="M993 531.833C993 529.164 995.164 527 997.833 527L1017.17 527C1019.84 527 1022 529.164 1022 531.833L1022 554.167C1022 556.836 1019.84 559 1017.17 559L997.833 559C995.164 559 993 556.836 993 554.167Z" fill="#C55A11" fill-rule="evenodd"/><text fill="#FFFFFF" font-family="Calibri,Calibri_MSFontService,sans-serif" font-weight="700" font-size="24" transform="translate(1003.24 551)">J</text><path d="M958 583.833C958 581.164 960.164 579 962.833 579L982.167 579C984.836 579 987 581.164 987 583.833L987 606.167C987 608.836 984.836 611 982.167 611L962.833 611C960.164 611 958 608.836 958 606.167Z" fill="#C55A11" fill-rule="evenodd"/><text fill="#FFFFFF" font-family="Calibri,Calibri_MSFontService,sans-serif" font-weight="700" font-size="24" transform="translate(968.181 603)">J</text><path d="M993 584.833C993 582.164 995.164 580 997.833 580L1017.17 580C1019.84 580 1022 582.164 1022 584.833L1022 607.167C1022 609.836 1019.84 612 1017.17 612L997.833 612C995.164 612 993 609.836 993 607.167Z" fill="#C55A11" fill-rule="evenodd"/><text fill="#FFFFFF" font-family="Calibri,Calibri_MSFontService,sans-serif" font-weight="700" font-size="24" transform="translate(1003.7 604)">f<tspan fill="#000000" font-weight="400" x="-20.1818" y="-27">+</tspan><tspan fill="#000000" font-weight="400" x="-34.165" y="36">1</tspan><tspan fill="#000000" font-weight="400" x="-21.9984" y="36">0</tspan><tspan fill="#000000" font-weight="400" x="-9.83167" y="36">0</tspan></text><path d="M758.226 477.963 772.4 475.329 779.939 474.442 787.924 474.061 796.494 474.315 805.753 475.52 815.877 477.672 826.988 481.081 833.441 483.548 840.992 486.82 849.399 490.773 858.481 495.22 868 500.042 877.767 505.176 897.28 515.683 906.602 520.813 915.36 525.692 923.305 530.196 930.307 534.198 936.121 537.511 937.753 538.453 936.254 541.052 934.625 540.112 934.632 540.116 928.818 536.802 921.818 532.802 921.823 532.805 913.885 528.305 913.895 528.31 905.145 523.435 905.152 523.439 895.839 518.314 895.851 518.321 876.351 507.821 876.365 507.828 866.615 502.703 866.635 502.713 857.135 497.901 857.153 497.91 848.09 493.472 848.112 493.483 839.737 489.545 839.779 489.564 832.279 486.314 832.339 486.339 825.964 483.901 826.06 483.934 815.06 480.559 815.188 480.592 805.188 478.467 805.307 478.488 796.182 477.3 796.331 477.312 787.893 477.062 788.009 477.061 780.134 477.436 780.238 477.427 772.8 478.302 772.899 478.287 758.774 480.912ZM937.953 535.105 943.5 543.5 933.456 542.901Z" fill="#4472C4"/><path d="M-0.228576 1.83002 13.9984-0.363576 21.583-1.12204 29.5548-1.43837 38.1608-1.18526 47.4594-0.236422 57.6306 1.59567 68.789 4.43254 75.2945 6.51681 82.8397 9.22052 91.3068 12.5446 100.388 16.2399 109.97 20.3105 119.796 24.6292 139.429 33.4452 148.817 37.7009 157.577 41.8307 165.574 45.5793 172.645 48.8958 178.466 51.7123 179.891 52.3971 178.591 55.1011 177.159 54.4127 171.347 51.6002 171.363 51.608 164.301 48.2957 156.298 44.5443 147.548 40.4193 147.568 40.4287 138.193 36.1787 138.198 36.1809 118.573 27.3684 118.584 27.3732 108.771 23.0607 108.788 23.0681 99.226 19.0056 99.2472 19.0144 90.1847 15.3269 90.2018 15.3338 81.7643 12.0213 81.8065 12.0371 74.3065 9.34958 74.3548 9.36598 67.9173 7.30347 68.0054 7.32875 56.9429 4.51625 57.0466 4.53874 46.9841 2.72624 47.0977 2.74225 37.9102 1.80475 38.0184 1.81185 29.5184 1.56185 29.622 1.56132 21.747 1.87382 21.8368 1.86756 14.3368 2.61756 14.4161 2.60748 0.228576 4.79498ZM179.84 49.0436 186 57 175.939 57.1542Z" fill="#4472C4" transform="matrix(1 0 0 -1 758.5 655.5)"/><path d="M947 191.834C947 184.194 953.194 178 960.834 178L1016.17 178C1023.81 178 1030 184.194 1030 191.834L1030 637.166C1030 644.807 1023.81 651 1016.17 651L960.834 651C953.194 651 947 644.807 947 637.166Z" stroke="#4472C4" stroke-width="2" stroke-miterlimit="8" fill="none" fill-rule="evenodd"/><text font-family="Calibri,Calibri_MSFontService,sans-serif" font-weight="700" font-size="24" transform="translate(915.985 153)">Popolazione D</text></g></svg>