<svg width="1280" height="720" xmlns="http://www.w3.org/2000/svg" xmlns:xlink="http://www.w3.org/1999/xlink" overflow="hidden"><defs><clipPath id="clip0"><path d="M0 0 1280 0 1280 720 0 720Z" fill-rule="evenodd" clip-rule="evenodd"/></clipPath></defs><g clip-path="url(#clip0)"><rect x="0" y="0" width="1280" height="720" fill="#FFFFFF"/><path d="M212 61.3335C212 55.6265 216.626 51 222.334 51L263.666 51C269.374 51 274 55.6265 274 61.3335L274 103.666C274 109.374 269.374 114 263.666 114L222.334 114C216.626 114 212 109.374 212 103.666Z" fill="#8FAADC" fill-rule="evenodd"/><text fill="#FFFFFF" font-family="Calibri,Calibri_MSFontService,sans-serif" font-weight="700" font-size="24" transform="translate(232.491 90)">M</text><path d="M283 61.3335C283 55.6265 287.626 51 293.334 51L334.666 51C340.374 51 345 55.6265 345 61.3335L345 103.666C345 109.374 340.374 114 334.666 114L293.334 114C287.626 114 283 109.374 283 103.666Z" fill="#8FAADC" fill-rule="evenodd"/><text fill="#FFFFFF" font-family="Calibri,Calibri_MSFontService,sans-serif" font-weight="700" font-size="24" transform="translate(303.519 90)">M</text><path d="M420 61.5002C420 55.7011 424.701 51 430.5 51L472.5 51C478.299 51 483 55.7011 483 61.5002L483 103.5C483 109.299 478.299 114 472.5 114L430.5 114C424.701 114 420 109.299 420 103.5Z" fill="#8FAADC" fill-rule="evenodd"/><text fill="#FFFFFF" font-family="Calibri,Calibri_MSFontService,sans-serif" font-weight="700" font-size="24" transform="translate(441.388 90)">M</text><path d="M496 61.3335C496 55.6265 500.626 51 506.334 51L547.666 51C553.374 51 558 55.6265 558 61.3335L558 103.666C558 109.374 553.374 114 547.666 114L506.334 114C500.626 114 496 109.374 496 103.666Z" fill="#C55A11" fill-rule="evenodd"/><text fill="#FFFFFF" font-family="Calibri,Calibri_MSFontService,sans-serif" font-weight="700" font-size="24" transform="translate(521.453 90)">F</text><path d="M723 61.3335C723 55.6265 727.626 51 733.334 51L774.666 51C780.374 51 785 55.6265 785 61.3335L785 103.666C785 109.374 780.374 114 774.666 114L733.334 114C727.626 114 723 109.374 723 103.666Z" fill="#8FAADC" fill-rule="evenodd"/><text fill="#FFFFFF" font-family="Calibri,Calibri_MSFontService,sans-serif" font-weight="700" font-size="24" transform="translate(743.444 90)">M</text><path d="M651 61.3335C651 55.6265 655.626 51 661.334 51L702.666 51C708.374 51 713 55.6265 713 61.3335L713 103.666C713 109.374 708.374 114 702.666 114L661.334 114C655.626 114 651 109.374 651 103.666Z" fill="#C55A11" fill-rule="evenodd"/><text fill="#FFFFFF" font-family="Calibri,Calibri_MSFontService,sans-serif" font-weight="700" font-size="24" transform="translate(676.519 90)">F</text><path d="M864 61.5002C864 55.7011 868.701 51 874.5 51L916.5 51C922.299 51 927 55.7011 927 61.5002L927 103.5C927 109.299 922.299 114 916.5 114L874.5 114C868.701 114 864 109.299 864 103.5Z" fill="#C55A11" fill-rule="evenodd"/><text fill="#FFFFFF" font-family="Calibri,Calibri_MSFontService,sans-serif" font-weight="700" font-size="24" transform="translate(890.201 90)">F</text><path d="M939 61.5002C939 55.7011 943.701 51 949.5 51L991.5 51C997.299 51 1002 55.7011 1002 61.5002L1002 103.5C1002 109.299 997.299 114 991.5 114L949.5 114C943.701 114 939 109.299 939 103.5Z" fill="#C55A11" fill-rule="evenodd"/><text fill="#FFFFFF" font-family="Calibri,Calibri_MSFontService,sans-serif" font-weight="700" font-size="24" transform="translate(965.266 90)">F</text><path d="M212 270.334C212 264.626 216.626 260 222.334 260L263.666 260C269.374 260 274 264.626 274 270.334L274 312.666C274 318.374 269.374 323 263.666 323L222.334 323C216.626 323 212 318.374 212 312.666Z" fill="#8FAADC" fill-rule="evenodd"/><text fill="#FFFFFF" font-family="Calibri,Calibri_MSFontService,sans-serif" font-weight="700" font-size="24" transform="translate(232.491 299)">M</text><path d="M283 270.334C283 264.626 287.626 260 293.334 260L334.666 260C340.374 260 345 264.626 345 270.334L345 312.666C345 318.374 340.374 323 334.666 323L293.334 323C287.626 323 283 318.374 283 312.666Z" fill="#8FAADC" fill-rule="evenodd"/><text fill="#FFFFFF" font-family="Calibri,Calibri_MSFontService,sans-serif" font-weight="700" font-size="24" transform="translate(303.519 299)">M</text><path d="M420 270.5C420 264.701 424.701 260 430.5 260L472.5 260C478.299 260 483 264.701 483 270.5L483 312.5C483 318.299 478.299 323 472.5 323L430.5 323C424.701 323 420 318.299 420 312.5Z" fill="#8FAADC" fill-rule="evenodd"/><text fill="#FFFFFF" font-family="Calibri,Calibri_MSFontService,sans-serif" font-weight="700" font-size="24" transform="translate(441.388 299)">M</text><path d="M496 270.334C496 264.626 500.626 260 506.334 260L547.666 260C553.374 260 558 264.626 558 270.334L558 312.666C558 318.374 553.374 323 547.666 323L506.334 323C500.626 323 496 318.374 496 312.666Z" fill="#C55A11" fill-rule="evenodd"/><text fill="#FFFFFF" font-family="Calibri,Calibri_MSFontService,sans-serif" font-weight="700" font-size="24" transform="translate(521.453 299)">F</text><path d="M723 270.334C723 264.626 727.626 260 733.334 260L774.666 260C780.374 260 785 264.626 785 270.334L785 312.666C785 318.374 780.374 323 774.666 323L733.334 323C727.626 323 723 318.374 723 312.666Z" fill="#8FAADC" fill-rule="evenodd"/><text fill="#FFFFFF" font-family="Calibri,Calibri_MSFontService,sans-serif" font-weight="700" font-size="24" transform="translate(743.444 299)">M</text><path d="M651 270.334C651 264.626 655.626 260 661.334 260L702.666 260C708.374 260 713 264.626 713 270.334L713 312.666C713 318.374 708.374 323 702.666 323L661.334 323C655.626 323 651 318.374 651 312.666Z" fill="#C55A11" fill-rule="evenodd"/><text fill="#FFFFFF" font-family="Calibri,Calibri_MSFontService,sans-serif" font-weight="700" font-size="24" transform="translate(676.519 299)">F</text><path d="M864 270.5C864 264.701 868.701 260 874.5 260L916.5 260C922.299 260 927 264.701 927 270.5L927 312.5C927 318.299 922.299 323 916.5 323L874.5 323C868.701 323 864 318.299 864 312.5Z" fill="#C55A11" fill-rule="evenodd"/><text fill="#FFFFFF" font-family="Calibri,Calibri_MSFontService,sans-serif" font-weight="700" font-size="24" transform="translate(890.201 299)">F</text><path d="M939 270.5C939 264.701 943.701 260 949.5 260L991.5 260C997.299 260 1002 264.701 1002 270.5L1002 312.5C1002 318.299 997.299 323 991.5 323L949.5 323C943.701 323 939 318.299 939 312.5Z" fill="#C55A11" fill-rule="evenodd"/><text fill="#FFFFFF" font-family="Calibri,Calibri_MSFontService,sans-serif" font-weight="700" font-size="24" transform="translate(965.266 299)">F</text><path d="M0 0 212.635 98.6917" stroke="#000000" stroke-width="4" stroke-miterlimit="8" fill="none" fill-rule="evenodd" transform="matrix(1 0 0 -1 172 340.692)"/><path d="M170 242 377.925 340.692" stroke="#000000" stroke-width="4" stroke-miterlimit="8" fill="none" fill-rule="evenodd"/><text font-family="Calibri,Calibri_MSFontService,sans-serif" font-weight="400" font-size="24" transform="translate(505.151 27)">Famiglie equiprobabili<tspan x="-429.159" y="144">Sappiamo che la famiglia dell’interlocutore ha </tspan><tspan font-weight="700" x="22.6078" y="144">almeno</tspan><tspan x="102.941" y="144">una femmina, allora appartiene a questo sottoinsieme </tspan><tspan x="-429.159" y="173">della popolazione:</tspan><tspan x="-411.215" y="360">Ci sono 3 tipi di famiglie con le caratteristiche indicate e’ composta da 2/3 di famiglie con sia un maschio che </tspan><tspan x="-411.215" y="389">una femmina e da 1/3 di famiglie con 2 femmine.</tspan><tspan x="-411.215" y="476">Osservazione: anche se non ci e’ stato detto la figlia femmina ha un nome (che non conosciamo)</tspan></text></g></svg>